<svg xmlns="http://www.w3.org/2000/svg" viewBox="0 0 64 64" role="img" aria-label="LA28 Unofficial Session Picker">
  <defs>
    <linearGradient id="bg" x1="0" y1="0" x2="1" y2="1">
      <stop offset="0" stop-color="#111827" />
      <stop offset="1" stop-color="#0b1220" />
    </linearGradient>
    <linearGradient id="gold" x1="0" y1="0" x2="1" y2="1">
      <stop offset="0" stop-color="#fde68a" />
      <stop offset="0.45" stop-color="#eab308" />
      <stop offset="1" stop-color="#a16207" />
    </linearGradient>
  </defs>

  <rect x="4" y="4" width="56" height="56" rx="14" fill="url(#bg)" />

  <g transform="translate(14 14) scale(1.5)" fill="none" stroke="url(#gold)" stroke-width="2" stroke-linecap="round" stroke-linejoin="round" opacity="0.98">
    <path d="M7.21 15 2.66 7.14a2 2 0 0 1 .13-2.2L4.4 2.8A2 2 0 0 1 6 2h12a2 2 0 0 1 1.6.8l1.6 2.14a2 2 0 0 1 .14 2.2L16.79 15" />
    <path d="M11 12 5.12 2.2" />
    <path d="m13 12 5.88-9.8" />
    <path d="M8 7h8" />
    <circle cx="12" cy="17" r="5" />
    <path d="M12 18v-2h-.5" />
  </g>
</svg>
